<?xml version="1.0" encoding="utf-8"?>
<svg version="1.0" width="30px" height="30px" viewBox="0 0 400 400" preserveAspectRatio="xMidYMid meet"
  xmlns="http://www.w3.org/2000/svg">
  <g transform="matrix(0.114931, 0, 0, -0.115025, -87.306519, 487.498474)" fill="#000000" stroke="none">
    <path d="M2304 4230 c-264 -28 -542 -130 -774 -285 -716 -476 -973 -1417 -600 -2198 202 -424 576 -753 1022 -901 284 -94 616 -111 926 -46 493 103 939 448 1173 907 271 531 249 1183 -56 1688 -65 108 -189 265 -277 352 -68 66 -207 176 -295 232 -131 84 -339 170 -523 216 -151 39 -416 54 -596 35z m318 -606 c33 -164 103 -255 353 -464 208 -174 283 -255 358 -385 85 -147 126 -311 127 -501 1 -293 -98 -569 -271 -758 -56 -61 -219 -176 -249 -176 -40 0 -41 32 -5 102 66 127 89 210 89 334 1 111 1 112 -39 189 -63 124 -87 126 -111 9 -44 -210 -182 -332 -385 -342 -143 -7 -252 35 -290 112 -29 56 -48 76 -74 76 -74 0 -82 -165 -14 -305 16 -33 56 -91 89 -128 72 -82 75 -97 20 -97 -52 0 -231 91 -325 165 -80 63 -165 158 -213 238 -44 74 -120 264 -134 335 -15 82 -4 280 22 377 40 155 149 339 205 347 19 3 20 -4 25 -117 9 -187 52 -255 162 -255 49 0 96 29 120 73 7 14 12 115 13 297 3 343 20 449 98 605 70 141 179 255 309 323 91 47 99 43 120 -54z" style="fill: rgb(248, 56, 56);"/>
    <path d="M2910 2966 c0 -2 23 -43 51 -92 68 -117 128 -237 210 -419 38 -82 74 -150 81 -150 10 0 12 16 9 60 -8 143 -71 301 -173 436 -68 90 -178 192 -178 165z" style="fill: rgb(248, 56, 56);"/>
  </g>
</svg>